<svg width="37" height="24" viewBox="0 0 37 24" fill="none" xmlns="http://www.w3.org/2000/svg">
<path d="M33.4916 3.72789H23.043V0.732422H33.4916V3.72789ZM36.0679 18.7053C35.4082 20.6478 33.0393 23.1985 28.4539 23.1985C23.8654 23.1985 20.1487 20.6089 20.1487 14.6988C20.1487 8.84266 23.6191 5.83221 28.3076 5.83221C32.908 5.83221 35.7171 8.50118 36.3306 12.4612C36.4471 13.219 36.4933 14.2405 36.4724 15.6663H24.4909C24.6849 20.4756 29.6898 20.6268 31.3392 18.7053H36.0679ZM24.5953 12.7143H32.0064C31.8497 10.3973 30.3107 9.39083 28.3091 9.39083C26.1208 9.39083 24.9103 10.5411 24.5953 12.7143ZM10.3046 23.1805H0.653076V0.763874H11.0315C19.2053 0.885191 19.3606 8.91755 15.0916 11.1072C20.2577 12.9944 20.4308 23.1805 10.3046 23.1805ZM5.13106 9.71884H10.4807C14.2243 9.71884 14.8184 5.22563 10.015 5.22563H5.13106V9.71884ZM10.1927 14.212H5.13106V18.7292H10.118C14.6781 18.7292 14.399 14.212 10.1927 14.212Z" fill="#080808"/>
</svg>
