<svg width="59" height="38" viewBox="0 0 59 38" fill="none" xmlns="http://www.w3.org/2000/svg">
<path d="M54.0815 5.43333H36.8734V0.5H54.0815V5.43333ZM58.3246 30.1C57.238 33.2993 53.3367 37.5 45.7847 37.5C38.2279 37.5 32.1067 33.2351 32.1067 23.5017C32.1067 13.857 37.8223 8.899 45.5438 8.899C53.1203 8.899 57.7469 13.2946 58.7572 19.8165C58.949 21.0646 59.0252 22.7469 58.9908 25.0951H39.2579C39.5775 33.0156 47.8202 33.2647 50.5367 30.1H58.3246ZM39.43 20.2333H51.6355C51.3774 16.4174 48.8429 14.7598 45.5463 14.7598C41.9424 14.7598 39.9487 16.6542 39.43 20.2333ZM15.8942 37.4704H-0.0012207V0.5518H17.0914C30.5531 0.7516 30.8087 13.9803 23.778 17.5866C32.2862 20.6946 32.5713 37.4704 15.8942 37.4704ZM7.3737 15.3H16.1843C22.3497 15.3 23.3281 7.9 15.4173 7.9H7.3737V15.3ZM15.7098 22.7H7.3737V30.1395H15.5869C23.097 30.1395 22.6373 22.7 15.7098 22.7Z" fill="#FFFAFA"/>
</svg>
