<svg width="27" height="28" viewBox="0 0 27 28" fill="none" xmlns="http://www.w3.org/2000/svg">
<path d="M13.3579 3.01499C16.9246 3.01499 17.3476 3.02835 18.7569 3.09291C22.3769 3.25766 24.0679 4.9753 24.2326 8.56866C24.2972 9.97683 24.3094 10.3998 24.3094 13.9665C24.3094 17.5342 24.2961 17.9561 24.2326 19.3643C24.0668 22.9543 22.3803 24.6753 18.7569 24.84C17.3476 24.9046 16.9268 24.918 13.3579 24.918C9.79131 24.918 9.3683 24.9046 7.96012 24.84C4.33115 24.6742 2.64913 22.9487 2.48438 19.3632C2.41981 17.955 2.40646 17.5331 2.40646 13.9654C2.40646 10.3987 2.42093 9.97683 2.48438 8.56754C2.65024 4.9753 4.33671 3.25655 7.96012 3.0918C9.36941 3.02835 9.79131 3.01499 13.3579 3.01499ZM13.3579 0.607178C9.73008 0.607178 9.2759 0.622762 7.85103 0.687327C2.99978 0.909963 0.303655 3.60164 0.0810181 8.45734C0.0153404 9.88332 -0.000244141 10.3375 -0.000244141 13.9654C-0.000244141 17.5932 0.0153404 18.0485 0.079905 19.4734C0.302541 24.3246 2.99422 27.0208 7.84992 27.2434C9.2759 27.308 9.73008 27.3235 13.3579 27.3235C16.9858 27.3235 17.4411 27.308 18.866 27.2434C23.7128 27.0208 26.4156 24.3291 26.6349 19.4734C26.7005 18.0485 26.7161 17.5932 26.7161 13.9654C26.7161 10.3375 26.7005 9.88332 26.636 8.45845C26.4178 3.61166 23.7228 0.911076 18.8671 0.68844C17.4411 0.622762 16.9858 0.607178 13.3579 0.607178ZM13.3579 7.10593C9.56978 7.10593 6.49851 10.1772 6.49851 13.9654C6.49851 17.7535 9.56978 20.8259 13.3579 20.8259C17.1461 20.8259 20.2174 17.7546 20.2174 13.9654C20.2174 10.1772 17.1461 7.10593 13.3579 7.10593ZM13.3579 18.4181C10.8989 18.4181 8.90521 16.4255 8.90521 13.9654C8.90521 11.5063 10.8989 9.51263 13.3579 9.51263C15.817 9.51263 17.8107 11.5063 17.8107 13.9654C17.8107 16.4255 15.817 18.4181 13.3579 18.4181ZM20.489 5.23245C19.6029 5.23245 18.8849 5.95045 18.8849 6.83543C18.8849 7.72041 19.6029 8.43841 20.489 8.43841C21.374 8.43841 22.0909 7.72041 22.0909 6.83543C22.0909 5.95045 21.374 5.23245 20.489 5.23245Z" fill="#080808"/>
</svg>
