<svg width="28" height="28" viewBox="0 0 28 28" fill="none" xmlns="http://www.w3.org/2000/svg">
<path fill-rule="evenodd" clip-rule="evenodd" d="M23.593 23.3725H19.6308V17.1721C19.6308 15.6938 19.6055 13.7917 17.5721 13.7917C15.5098 13.7917 15.1951 15.4029 15.1951 17.0667V23.3725H11.2374V10.6228H15.0356V12.3661H15.0905C15.6189 11.3635 16.9116 10.3067 18.8389 10.3067C22.8516 10.3067 23.593 12.9464 23.593 16.3802V23.3725ZM6.76981 8.88109C5.49707 8.88109 4.47072 7.85177 4.47072 6.58274C4.47072 5.31445 5.49707 4.28513 6.76981 4.28513C8.03736 4.28513 9.06594 5.31445 9.06594 6.58274C9.06594 7.85177 8.03736 8.88109 6.76981 8.88109ZM4.78538 23.3725H8.75202V10.6228H4.78538V23.3725ZM25.5663 0.607178H2.79724C1.71003 0.607178 0.826904 1.46952 0.826904 2.53372V25.3955C0.826904 26.4597 1.71003 27.3235 2.79724 27.3235H25.5663C26.6557 27.3235 27.5425 26.4597 27.5425 25.3955V2.53372C27.5425 1.46952 26.6557 0.607178 25.5663 0.607178Z" fill="#080808"/>
</svg>
