<svg width="44" height="44" viewBox="0 0 44 44" fill="none" xmlns="http://www.w3.org/2000/svg">
<path fill-rule="evenodd" clip-rule="evenodd" d="M37.4941 37.4929H30.9687V27.2812C30.9687 24.8466 30.9271 21.714 27.5782 21.714C24.1817 21.714 23.6634 24.3674 23.6634 27.1077V37.4929H17.1453V16.4951H23.4007V19.3661H23.4911C24.3613 17.7149 26.4904 15.9744 29.6646 15.9744C36.2731 15.9744 37.4941 20.3219 37.4941 25.9771V37.4929ZM9.78756 13.6266C7.69144 13.6266 6.00111 11.9313 6.00111 9.84133C6.00111 7.75256 7.69144 6.05733 9.78756 6.05733C11.8751 6.05733 13.5691 7.75256 13.5691 9.84133C13.5691 11.9313 11.8751 13.6266 9.78756 13.6266ZM6.51933 37.4929H13.0521V16.4951H6.51933V37.4929ZM40.744 0H3.245C1.45444 0 0 1.42022 0 3.17289V40.8247C0 42.5773 1.45444 44 3.245 44H40.744C42.5382 44 43.9988 42.5773 43.9988 40.8247V3.17289C43.9988 1.42022 42.5382 0 40.744 0Z" fill="#FFFAFA"/>
</svg>
