<svg width="262" height="116" viewBox="0 0 262 116" fill="none" xmlns="http://www.w3.org/2000/svg">
<g clip-path="url(#clip0_17_269)">
<g clip-path="url(#clip1_17_269)">
<path d="M8.98144 114.792V71.3381H0V63.373H8.98144V55.8108C8.98144 51.2392 10.2767 47.6608 12.8673 45.0729C15.4579 42.485 19.04 41.1911 23.6163 41.1911H36.3345V49.1562H25.4336C23.144 49.1562 21.3958 49.7963 20.1861 51.0709C18.9765 52.3483 18.3689 54.1306 18.3689 56.415V63.373H34.3156V71.3381H18.3689V114.792H8.98144Z" fill="#FFFAFA"/>
<path d="M42.6921 114.792V41.1911H51.9774V114.792H42.6921Z" fill="#FFFAFA"/>
<path d="M90.933 116C85.6855 116 81.0429 114.805 77.0051 112.422C72.9673 110.038 69.7719 106.81 67.4188 102.743C65.063 98.6765 63.8865 94.1215 63.8865 89.0809C63.8865 84.0403 65.063 79.488 67.4188 75.4214C69.7719 71.3547 72.9701 68.1295 77.0051 65.743C81.0429 63.3592 85.6855 62.1646 90.933 62.1646C96.1804 62.1646 100.84 63.3592 104.911 65.743C108.981 68.1295 112.177 71.3547 114.5 75.4214C116.822 79.488 117.982 84.0403 117.982 89.0809C117.982 94.1215 116.822 98.6765 114.5 102.743C112.177 106.81 108.981 110.035 104.911 112.422C100.84 114.805 96.1804 116 90.933 116Z" fill="#FFFAFA"/>
<path d="M129.587 114.792V77.9927C129.587 73.4211 130.883 69.8428 133.473 67.2549C136.061 64.667 139.646 63.373 144.222 63.373H154.819V71.3381H145.937C143.717 71.3381 141.982 71.9782 140.74 73.2528C139.494 74.5302 138.873 76.3125 138.873 78.5969V114.792H129.587Z" fill="#FFFAFA"/>
<path d="M180.25 63.3731C185.97 63.3731 190.98 64.4325 195.288 66.5486C199.594 68.6647 202.974 71.6389 205.43 75.4711C207.885 79.3032 209.114 83.839 209.114 89.081C209.114 94.323 208.07 98.7759 205.985 102.843C203.9 106.909 201.005 110.118 197.304 112.471C193.604 114.822 189.295 116 184.385 116C179.137 116 174.729 114.855 171.164 112.571C167.595 110.286 164.939 107.193 163.19 103.295C161.439 99.3967 160.567 95.0955 160.567 90.3887C160.567 89.6493 160.616 88.8602 160.719 88.0188C160.818 87.18 160.904 86.4903 160.97 85.9523H199.221C198.95 82.7271 197.942 80.0399 196.194 77.8851C194.443 75.7359 192.189 74.1054 189.433 72.9963C186.674 71.8872 183.68 71.3326 180.452 71.3326H167.029V63.3676H180.25V63.3731ZM199.326 92.5103H169.957C169.957 93.7877 170.109 95.1479 170.41 96.5936C170.714 98.0393 171.2 99.4518 171.874 100.829C172.545 102.205 173.437 103.45 174.547 104.559C175.657 105.668 177.019 106.559 178.634 107.232C180.25 107.905 182.2 108.239 184.49 108.239C186.779 108.239 188.914 107.787 190.695 106.879C192.477 105.971 193.993 104.763 195.239 103.251C196.481 101.739 197.442 100.042 198.116 98.1579C198.787 96.2763 199.191 94.3947 199.326 92.5131V92.5103Z" fill="#FFFAFA"/>
<path d="M220.316 114.792V106.826H244.943C246.559 106.826 247.953 106.473 249.13 105.767C250.307 105.061 251.199 104.139 251.806 102.994C252.411 101.852 252.715 100.644 252.715 99.3635C252.715 98.1551 252.444 97.0294 251.908 95.9866C251.37 94.9464 250.547 94.105 249.437 93.4676C248.326 92.8303 246.998 92.5103 245.448 92.5103H235.053C231.755 92.5103 228.878 91.9557 226.422 90.8466C223.967 89.7375 222.048 88.1098 220.669 85.9578C219.291 83.8086 218.601 81.1876 218.601 78.0948C218.601 75.4738 219.239 73.0542 220.518 70.836C221.793 68.6178 223.578 66.8217 225.867 65.4422C228.154 64.0655 230.778 63.3758 233.738 63.3758H257.457V71.3409H234.647C232.559 71.3409 230.913 71.9809 229.701 73.2556C228.491 74.533 227.883 76.0449 227.883 77.7941C227.883 79.5432 228.505 80.9365 229.75 82.1808C230.993 83.4251 232.761 84.0458 235.047 84.0458H244.938C248.638 84.0458 251.751 84.6362 254.272 85.8088C256.794 86.9869 258.713 88.6836 260.025 90.9018C261.337 93.12 261.995 95.8403 261.995 99.0683C261.995 101.824 261.321 104.396 259.976 106.78C258.628 109.166 256.761 111.1 254.375 112.576C251.986 114.055 249.21 114.794 246.048 114.794H220.31L220.316 114.792Z" fill="#FFFAFA"/>
<path d="M188.773 57.2289C183.479 57.2289 178.903 55.9597 175.042 53.4243C171.18 50.8888 168.212 47.4401 166.137 43.0837C164.063 38.7274 163.028 33.9047 163.028 28.6158C163.028 23.3269 164.171 18.4187 166.461 14.0955C168.75 9.77218 172.039 6.34281 176.331 3.80734C180.623 1.27186 185.771 0.00274658 191.778 0.00274658C197.785 0.00274658 202.541 1.25255 206.689 3.75216C210.837 6.25452 214.038 9.64527 216.292 13.9327C218.546 18.2201 219.673 23.0069 219.673 28.293V55.9432H209.694V44.797H209.479C208.407 46.869 206.957 48.8527 205.134 50.7453C203.311 52.638 201.039 54.194 198.321 55.408C195.603 56.6219 192.422 57.2289 188.773 57.2289Z" fill="#FFFAFA"/>
<path d="M235.009 55.9432V16.8241C235.009 11.9655 236.384 8.16096 239.138 5.41028C241.891 2.65961 245.7 1.2829 250.563 1.2829H261.829V9.75011H252.389C250.028 9.75011 248.186 10.4288 246.863 11.7862C245.54 13.1436 244.877 15.039 244.877 17.4669V55.9404H235.006L235.009 55.9432Z" fill="#FFFAFA"/>
<path d="M107.272 57.2288C103.941 57.2288 100.958 56.5695 98.3236 55.2534C95.6861 53.9374 93.6064 51.9289 92.0819 49.2251C90.5546 46.5214 89.7923 43.1637 89.7923 39.1439V18.5649C89.7923 16.6254 89.3919 15.0307 88.5965 13.7837C87.7983 12.5366 86.7764 11.5848 85.5281 10.9254C84.2797 10.2688 82.9596 9.93769 81.5732 9.93769C80.1867 9.93769 78.8666 10.2495 77.6182 10.873C76.3699 11.4965 75.3618 12.4483 74.6023 13.7312C73.8373 15.0142 73.4589 16.6254 73.4589 18.5649V55.9818H63.8865V20.2258C63.8865 15.8612 64.6819 12.3269 66.2782 9.62318C67.8718 6.9194 70.0067 4.9302 72.6773 3.64729C75.348 2.36714 78.3474 1.7243 81.6781 1.7243C85.0089 1.7243 87.7983 2.36438 90.469 3.64729C93.1397 4.9302 95.2884 6.92216 96.9206 9.62318C98.5501 12.3242 99.3648 15.8584 99.3648 20.2258V40.5979C99.3648 42.4685 99.7294 44.0273 100.458 45.2743C101.188 46.5214 102.157 47.4566 103.372 48.0802C104.585 48.7037 105.885 49.0154 107.275 49.0154C108.664 49.0154 109.943 48.7037 111.125 48.0802C112.304 47.4566 113.273 46.5214 114.038 45.2743C114.801 44.0273 115.182 42.4685 115.182 40.5979V20.2258C115.182 15.8612 115.996 12.3269 117.626 9.62318C119.255 6.9194 121.423 4.9302 124.13 3.64729C126.834 2.36714 129.783 1.7243 132.973 1.7243C136.163 1.7243 139.199 2.36438 141.869 3.64729C144.54 4.9302 146.672 6.92216 148.268 9.62318C149.862 12.3242 150.66 15.8584 150.66 20.2258V55.9818H140.983V18.5622C140.983 16.6226 140.602 15.028 139.839 13.7809C139.074 12.5339 138.105 11.582 136.926 10.9226C135.746 10.266 134.429 9.93494 132.973 9.93494C131.518 9.93494 130.165 10.266 128.913 10.9226C127.665 11.582 126.66 12.5339 125.898 13.7809C125.133 15.028 124.754 16.6226 124.754 18.5622V39.1412C124.754 43.161 123.989 46.5214 122.465 49.2224C120.937 51.9261 118.858 53.9347 116.223 55.2507C113.585 56.5667 110.605 57.2261 107.275 57.2261L107.272 57.2288Z" fill="#FFFAFA"/>
</g>
</g>
<defs>
<clipPath id="clip0_17_269">
<rect width="262" height="116" fill="white"/>
</clipPath>
<clipPath id="clip1_17_269">
<rect width="262" height="116" fill="white"/>
</clipPath>
</defs>
</svg>
