<svg width="136" height="60" viewBox="0 0 136 60" fill="none" xmlns="http://www.w3.org/2000/svg">
<g clip-path="url(#clip0_33_73)">
<g clip-path="url(#clip1_33_73)">
<path d="M4.66212 59.3749V36.899H0V32.7791H4.66212V28.8676C4.66212 26.503 5.33449 24.6521 6.67922 23.3135C8.02395 21.9749 9.88335 21.3057 12.2589 21.3057H18.8607V25.4255H13.2022C12.0137 25.4255 11.1062 25.7566 10.4783 26.4159C9.85038 27.0766 9.53498 27.9985 9.53498 29.1801V32.7791H17.8127V36.899H9.53498V59.3749H4.66212Z" fill="#ED1A39"/>
<path d="M22.1606 59.3749V21.3057H26.9805V59.3749H22.1606Z" fill="#ED1A39"/>
<path d="M47.202 59.9999C44.4781 59.9999 42.0682 59.382 39.9723 58.1491C37.8763 56.9161 36.2176 55.2465 34.9962 53.143C33.7733 51.0395 33.1626 48.6835 33.1626 46.0763C33.1626 43.4691 33.7733 41.1145 34.9962 39.011C36.2176 36.9075 37.8778 35.2393 39.9723 34.0049C42.0682 32.772 44.4781 32.1541 47.202 32.1541C49.9259 32.1541 52.3444 32.772 54.4575 34.0049C56.5707 35.2393 58.2294 36.9075 59.435 39.011C60.6407 41.1145 61.2428 43.4691 61.2428 46.0763C61.2428 48.6835 60.6407 51.0395 59.435 53.143C58.2294 55.2465 56.5707 56.9147 54.4575 58.1491C52.3444 59.382 49.9259 59.9999 47.202 59.9999Z" fill="#ED1A39"/>
<path d="M67.2666 59.3748V40.341C67.2666 37.9763 67.939 36.1255 69.2837 34.7869C70.627 33.4483 72.4878 32.7791 74.8633 32.7791H80.3641V36.8989H75.7536C74.601 36.8989 73.7007 37.23 73.0555 37.8893C72.409 38.55 72.0864 39.4719 72.0864 40.6535V59.3748H67.2666Z" fill="#ED1A39"/>
<path d="M93.565 32.779C96.5341 32.779 99.1346 33.327 101.371 34.4215C103.606 35.516 105.361 37.0544 106.635 39.0366C107.91 41.0187 108.548 43.3648 108.548 46.0762C108.548 48.7875 108.006 51.0908 106.923 53.1943C105.841 55.2977 104.339 56.9574 102.418 58.1746C100.497 59.3905 98.2601 59.9998 95.7112 59.9998C92.9873 59.9998 90.6992 59.4076 88.8484 58.226C86.9962 57.0444 85.6171 55.4447 84.7096 53.4283C83.8007 51.4119 83.3477 49.1871 83.3477 46.7526C83.3477 46.3701 83.3735 45.962 83.4265 45.5267C83.4781 45.0929 83.5226 44.7362 83.557 44.4579H103.413C103.272 42.7897 102.749 41.3997 101.841 40.2852C100.932 39.1736 99.7626 38.3302 98.3318 37.7565C96.8996 37.1828 95.3456 36.896 93.6697 36.896H86.7023V32.7761H93.565V32.779ZM103.467 47.85H88.222C88.222 48.5107 88.3008 49.2142 88.4571 49.962C88.6148 50.7098 88.8671 51.4404 89.2169 52.1525C89.5652 52.8646 90.0283 53.5082 90.6046 54.0819C91.1809 54.6555 91.8877 55.1165 92.7264 55.4647C93.565 55.8129 94.5772 55.9855 95.7656 55.9855C96.9541 55.9855 98.0623 55.7515 98.987 55.282C99.9116 54.8125 100.699 54.1875 101.345 53.4054C101.99 52.6234 102.489 51.7458 102.839 50.7711C103.187 49.7979 103.397 48.8246 103.467 47.8514V47.85Z" fill="#ED1A39"/>
<path d="M114.362 59.3749V55.255H127.146C127.985 55.255 128.709 55.0723 129.319 54.707C129.93 54.3417 130.393 53.8651 130.709 53.2728C131.022 52.6821 131.18 52.057 131.18 51.3949C131.18 50.7698 131.04 50.1876 130.762 49.6482C130.482 49.1102 130.055 48.6749 129.478 48.3453C128.902 48.0156 128.213 47.8501 127.408 47.8501H122.012C120.3 47.8501 118.807 47.5632 117.532 46.9896C116.258 46.4159 115.261 45.574 114.546 44.4609C113.831 43.3492 113.472 41.9935 113.472 40.3938C113.472 39.0381 113.803 37.7866 114.467 36.6392C115.129 35.4919 116.056 34.5629 117.244 33.8494C118.431 33.1373 119.793 32.7805 121.33 32.7805H133.642V36.9004H121.801C120.718 36.9004 119.863 37.2315 119.234 37.8908C118.606 38.5515 118.291 39.3335 118.291 40.2382C118.291 41.143 118.613 41.8636 119.26 42.5072C119.905 43.1508 120.822 43.4719 122.009 43.4719H127.143C129.064 43.4719 130.68 43.7773 131.989 44.3838C133.298 44.9931 134.294 45.8708 134.975 47.0181C135.656 48.1655 135.997 49.5725 135.997 51.2422C135.997 52.6678 135.647 53.9978 134.949 55.2307C134.25 56.4651 133.28 57.4655 132.042 58.229C130.802 58.9939 129.361 59.3763 127.719 59.3763H114.36L114.362 59.3749Z" fill="#ED1A39"/>
<path d="M97.9892 29.6012C95.2409 29.6012 92.8654 28.9447 90.8612 27.6333C88.857 26.3218 87.3159 24.538 86.2393 22.2847C85.1626 20.0314 84.625 17.537 84.625 14.8013C84.625 12.0657 85.2185 9.52697 86.407 7.2908C87.5955 5.05462 89.3029 3.28081 91.5307 1.96936C93.7586 0.657904 96.4308 0.00146484 99.5489 0.00146484C102.667 0.00146484 105.136 0.647915 107.289 1.94082C109.442 3.23514 111.104 4.98898 112.274 7.2066C113.444 9.42423 114.028 11.9001 114.028 14.6344V28.9362H108.849V23.1709H108.737C108.181 24.2426 107.428 25.2687 106.482 26.2476C105.536 27.2266 104.356 28.0314 102.945 28.6593C101.535 29.2872 99.883 29.6012 97.9892 29.6012Z" fill="#ED1A39"/>
<path d="M121.989 28.9361V8.7021C121.989 6.18908 122.703 4.22119 124.133 2.79843C125.562 1.37567 127.539 0.663574 130.064 0.663574H135.911V5.04317H131.011C129.785 5.04317 128.829 5.39422 128.143 6.09632C127.456 6.79843 127.112 7.77881 127.112 9.0346V28.9347H121.988L121.989 28.9361Z" fill="#ED1A39"/>
<path d="M55.6833 29.6011C53.9543 29.6011 52.406 29.26 51.0384 28.5793C49.6693 27.8986 48.5897 26.8597 47.7984 25.4612C47.0056 24.0627 46.6099 22.326 46.6099 20.2468V9.60251C46.6099 8.5993 46.402 7.77447 45.9892 7.12945C45.5748 6.48443 45.0444 5.9921 44.3964 5.65103C43.7484 5.3114 43.0631 5.14015 42.3435 5.14015C41.6238 5.14015 40.9385 5.30141 40.2905 5.62392C39.6425 5.94643 39.1193 6.43876 38.725 7.10233C38.3279 7.76591 38.1315 8.5993 38.1315 9.60251V28.9561H33.1626V10.4616C33.1626 8.20401 33.5755 6.37597 34.4041 4.97747C35.2313 3.57897 36.3395 2.55007 37.7258 1.88649C39.1121 1.22435 40.669 0.891846 42.398 0.891846C44.1269 0.891846 45.5748 1.22292 46.9612 1.88649C48.3475 2.55007 49.4628 3.58039 50.3101 4.97747C51.1559 6.37454 51.5788 8.20258 51.5788 10.4616V20.9989C51.5788 21.9664 51.7681 22.7727 52.1465 23.4177C52.525 24.0627 53.0282 24.5465 53.659 24.869C54.2884 25.1915 54.9636 25.3528 55.6847 25.3528C56.4058 25.3528 57.0696 25.1915 57.6832 24.869C58.2953 24.5465 58.7985 24.0627 59.1956 23.4177C59.5913 22.7727 59.7891 21.9664 59.7891 20.9989V10.4616C59.7891 8.20401 60.2121 6.37597 61.0579 4.97747C61.9037 3.57897 63.0291 2.55007 64.4341 1.88649C65.8376 1.22435 67.3687 0.891846 69.0245 0.891846C70.6803 0.891846 72.2559 1.22292 73.6422 1.88649C75.0285 2.55007 76.1352 3.58039 76.9639 4.97747C77.7911 6.37454 78.2054 8.20258 78.2054 10.4616V28.9561H73.182V9.60109C73.182 8.59788 72.9841 7.77304 72.5885 7.12802C72.1914 6.483 71.6882 5.99067 71.076 5.64961C70.4639 5.30997 69.78 5.13872 69.0245 5.13872C68.269 5.13872 67.5665 5.30997 66.9171 5.64961C66.2691 5.99067 65.7473 6.483 65.3516 7.12802C64.9545 7.77304 64.7581 8.59788 64.7581 9.60109V20.2454C64.7581 22.3246 64.361 24.0627 63.5696 25.4598C62.7768 26.8583 61.6973 27.8972 60.3296 28.5779C58.9605 29.2586 57.4136 29.5997 55.6847 29.5997L55.6833 29.6011Z" fill="#ED1A39"/>
</g>
</g>
<defs>
<clipPath id="clip0_33_73">
<rect width="136" height="60" fill="white"/>
</clipPath>
<clipPath id="clip1_33_73">
<rect width="136" height="60" fill="white"/>
</clipPath>
</defs>
</svg>
